<svg xmlns="http://www.w3.org/2000/svg" viewBox="0 0 800 500">
  <defs>
    <linearGradient id="g1" x1="0%" y1="0%" x2="100%" y2="100%">
      <stop offset="0%" style="stop-color:#1a1a2e"/>
      <stop offset="100%" style="stop-color:#16213e"/>
    </linearGradient>
  </defs>
  <rect width="800" height="500" fill="url(#g1)"/>
  <rect x="40" y="40" width="720" height="420" rx="16" fill="none" stroke="#6c63ff" stroke-opacity="0.2" stroke-width="2"/>
  <rect x="60" y="100" width="200" height="12" rx="6" fill="#6c63ff" opacity="0.3"/>
  <rect x="60" y="130" width="300" height="8" rx="4" fill="#9898b0" opacity="0.3"/>
  <rect x="60" y="155" width="250" height="8" rx="4" fill="#9898b0" opacity="0.2"/>
  <rect x="60" y="200" width="180" height="120" rx="8" fill="#6c63ff" opacity="0.1"/>
  <rect x="60" y="210" width="100" height="8" rx="4" fill="#6c63ff" opacity="0.4"/>
  <rect x="60" y="230" width="140" height="6" rx="3" fill="#9898b0" opacity="0.3"/>
  <rect x="60" y="250" width="120" height="6" rx="3" fill="#9898b0" opacity="0.2"/>
  <rect x="60" y="280" width="80" height="24" rx="12" fill="#6c63ff" opacity="0.2"/>
  <rect x="260" y="200" width="180" height="120" rx="8" fill="#00d4ff" opacity="0.08"/>
  <rect x="260" y="210" width="100" height="8" rx="4" fill="#00d4ff" opacity="0.4"/>
  <rect x="260" y="230" width="140" height="6" rx="3" fill="#9898b0" opacity="0.3"/>
  <rect x="260" y="250" width="120" height="6" rx="3" fill="#9898b0" opacity="0.2"/>
  <rect x="260" y="280" width="80" height="24" rx="12" fill="#00d4ff" opacity="0.2"/>
  <rect x="460" y="200" width="180" height="120" rx="8" fill="#6c63ff" opacity="0.08"/>
  <rect x="460" y="210" width="100" height="8" rx="4" fill="#6c63ff" opacity="0.4"/>
  <rect x="460" y="230" width="140" height="6" rx="3" fill="#9898b0" opacity="0.3"/>
  <rect x="460" y="250" width="120" height="6" rx="3" fill="#9898b0" opacity="0.2"/>
  <rect x="460" y="280" width="80" height="24" rx="12" fill="#6c63ff" opacity="0.2"/>
  <text x="400" y="80" text-anchor="middle" fill="#6c63ff" font-size="22" font-family="system-ui" font-weight="700">Book Store API</text>
  <text x="400" y="450" text-anchor="middle" fill="#9898b0" font-size="12" font-family="system-ui">Replace with book-store.png</text>
</svg>
