<svg xmlns="http://www.w3.org/2000/svg" viewBox="0 0 800 500">
  <defs>
    <linearGradient id="g2" x1="0%" y1="0%" x2="100%" y2="100%">
      <stop offset="0%" style="stop-color:#1a1a2e"/>
      <stop offset="100%" style="stop-color:#16213e"/>
    </linearGradient>
  </defs>
  <rect width="800" height="500" fill="url(#g2)"/>
  <rect x="40" y="40" width="720" height="420" rx="16" fill="none" stroke="#6c63ff" stroke-opacity="0.2" stroke-width="2"/>
  <rect x="60" y="100" width="300" height="12" rx="6" fill="#6c63ff" opacity="0.3"/>
  <rect x="60" y="130" width="200" height="8" rx="4" fill="#9898b0" opacity="0.3"/>
  <rect x="60" y="170" width="680" height="40" rx="6" fill="#6c63ff" opacity="0.06"/>
  <rect x="80" y="180" width="120" height="20" rx="4" fill="#6c63ff" opacity="0.3"/>
  <rect x="230" y="180" width="80" height="20" rx="4" fill="#00d4ff" opacity="0.3"/>
  <rect x="340" y="180" width="100" height="20" rx="4" fill="#6c63ff" opacity="0.3"/>
  <rect x="60" y="240" width="680" height="40" rx="6" fill="#6c63ff" opacity="0.04"/>
  <rect x="80" y="250" width="120" height="20" rx="4" fill="#6c63ff" opacity="0.3"/>
  <rect x="230" y="250" width="80" height="20" rx="4" fill="#00d4ff" opacity="0.3"/>
  <rect x="340" y="250" width="100" height="20" rx="4" fill="#6c63ff" opacity="0.3"/>
  <rect x="60" y="310" width="680" height="40" rx="6" fill="#6c63ff" opacity="0.06"/>
  <rect x="80" y="320" width="120" height="20" rx="4" fill="#6c63ff" opacity="0.3"/>
  <rect x="230" y="320" width="80" height="20" rx="4" fill="#00d4ff" opacity="0.3"/>
  <rect x="340" y="320" width="100" height="20" rx="4" fill="#6c63ff" opacity="0.3"/>
  <text x="400" y="80" text-anchor="middle" fill="#6c63ff" font-size="22" font-family="system-ui" font-weight="700">Gym Management</text>
  <text x="400" y="450" text-anchor="middle" fill="#9898b0" font-size="12" font-family="system-ui">Replace with gym-management.png</text>
</svg>
