<svg xmlns="http://www.w3.org/2000/svg" width="200" height="200" viewBox="0 0 24 24" fill="none" stroke="#6c63ff" stroke-width="1.5" stroke-linecap="round" stroke-linejoin="round">
  <path d="M20 14.66V20a2 2 0 0 1-2 2H4a2 2 0 0 1-2-2V6a2 2 0 0 1 2-2h5.34"/>
  <polygon points="18 2 22 6 12 16 8 16 8 12 18 2"/>
  <line x1="10" y1="8" x2="2" y2="16"/>
  <line x1="14" y1="12" x2="12" y2="14"/>
  <circle cx="20" cy="8" r="1" fill="#6c63ff"/>
  <circle cx="16" cy="4" r="1" fill="#6c63ff"/>
  <circle cx="6" cy="18" r="1" fill="#6c63ff"/>
  <circle cx="10" cy="18" r="1" fill="#6c63ff"/>
</svg>